<svg width="13" height="13" viewBox="0 0 13 13" fill="none" xmlns="http://www.w3.org/2000/svg">
<path d="M10.4 0.205383H2.6C1.16406 0.205383 0 1.2799 0 2.60538V9.80538C0 11.1309 1.16406 12.2054 2.6 12.2054H10.4C11.8359 12.2054 13 11.1309 13 9.80538V2.60538C13 1.2799 11.8359 0.205383 10.4 0.205383Z" fill="white"/>
<path d="M2.6001 4.70536C2.61025 4.45223 2.70674 4.24129 2.88955 4.07254C3.07236 3.90379 3.30088 3.81473 3.5751 3.80536H9.4251C9.69933 3.81473 9.92781 3.90379 10.1107 4.07254C10.2934 4.24129 10.39 4.45223 10.4001 4.70536V8.30536C10.39 8.5585 10.2934 8.7694 10.1107 8.93818C9.92781 9.1069 9.69933 9.196 9.4251 9.20536H3.5751C3.30088 9.196 3.07236 9.1069 2.88955 8.93818C2.70674 8.7694 2.61025 8.5585 2.6001 8.30536V4.70536ZM3.33135 4.70536V5.01473L5.9669 7.01164C6.1294 7.12408 6.30713 7.18036 6.5001 7.18036C6.69308 7.18036 6.87586 7.12408 7.04857 7.01164L9.66885 5.01473V4.69129C9.65871 4.56005 9.57746 4.48504 9.4251 4.4663H3.5751C3.42275 4.48504 3.3415 4.56005 3.33135 4.69129V4.70536ZM3.33135 5.88661V8.30536C3.3415 8.446 3.42275 8.521 3.5751 8.53036H9.4251C9.57746 8.521 9.65871 8.446 9.66885 8.30536V5.88661L7.50558 7.5319C7.20086 7.74754 6.86572 7.85536 6.5001 7.85536C6.13447 7.85536 5.79424 7.74754 5.4794 7.5319L3.33135 5.88661Z" fill="url(#paint0_linear_101_158)"/>
<defs>
<linearGradient id="paint0_linear_101_158" x1="6.50007" y1="9.2053" x2="6.50007" y2="3.20509" gradientUnits="userSpaceOnUse">
<stop stop-color="#21171F"/>
<stop offset="1" stop-color="#3E4049"/>
</linearGradient>
</defs>
</svg>
