<svg width="69" height="28" viewBox="0 0 69 28" fill="none" xmlns="http://www.w3.org/2000/svg">
<g clip-path="url(#clip0_101_23)">
<path fill-rule="evenodd" clip-rule="evenodd" d="M12.6195 11.9402L16.2207 12.3242C16.411 12.3441 16.5491 12.5117 16.5288 12.6984C16.5201 12.779 16.4827 12.8502 16.4285 12.9035C16.2531 13.0772 16.083 13.2419 15.9188 13.4006C14.8215 14.4623 13.9946 15.2628 13.898 16.6573C13.8466 17.3993 14.2666 18.0851 14.7095 18.8075C15.3755 19.8948 16.0872 21.0566 15.6161 22.7362C15.3876 23.5515 14.9836 24.2898 14.4603 24.9687C13.9461 25.6358 13.3124 26.2492 12.6149 26.8248C12.5 26.9192 12.3412 26.9286 12.2189 26.859L10.3237 25.7859L10.8073 25.275L12.3541 26.1512C12.9376 25.6545 13.4679 25.1273 13.9059 24.559C14.3807 23.9427 14.7452 23.2801 14.948 22.5585C15.3407 21.1583 14.7074 20.1247 14.1148 19.1574C13.6143 18.341 13.1395 17.5656 13.2059 16.6129C13.3199 14.965 14.2244 14.0868 15.4249 12.925L12.1264 12.5732L12.6195 11.9402Z" fill="#F48C0D"/>
<path fill-rule="evenodd" clip-rule="evenodd" d="M3.76042 10.2448L10.5341 10.9672C9.13738 12.3519 8.02268 13.1992 7.90201 14.9395C7.76473 16.9184 10.3881 18.258 9.63211 20.9517C9.20081 22.4894 8.09648 23.7524 6.7425 24.8699L0.924316 21.5749C1.95566 20.9159 2.98867 19.7566 3.13465 18.5143C3.33867 16.7801 1.395 15.1017 1.88309 13.423C2.21361 12.2839 2.8344 11.112 3.76042 10.2448Z" fill="#F48C0D"/>
<path fill-rule="evenodd" clip-rule="evenodd" d="M7.43272 8.55736L15.1183 9.37255C15.3086 9.39249 15.4467 9.5601 15.4264 9.7468C15.4164 9.83914 15.3695 9.91889 15.3019 9.97338L14.6849 10.4847C13.0282 11.8536 12.0159 12.6395 11.3674 14.6209C11.0086 15.7168 11.3665 16.7081 11.7671 17.8166C12.2432 19.1337 12.7744 20.6047 12.3705 22.6463C12.1577 23.7203 11.6634 24.6677 10.9688 25.5386C10.2845 26.3957 9.41119 27.1751 8.42424 27.9284C8.30067 28.0224 8.13312 28.022 8.01122 27.9382L2.21873 24.0318C2.05534 23.9342 2.00392 23.7247 2.10344 23.5645C2.13371 23.516 2.17436 23.4774 2.22081 23.4502C2.96726 23.001 3.93598 22.1025 4.53688 21.3707C5.04613 20.7504 5.4347 20.06 5.58689 19.3547C5.80004 18.3678 5.41604 17.3463 5.03576 16.3339C4.56839 15.0903 4.10518 13.8578 4.60738 12.5658C4.92338 11.7539 5.34886 10.9285 5.88008 10.1577C6.36444 9.45476 6.50502 9.20903 7.1673 8.64074C7.2436 8.57528 7.3402 8.54801 7.43272 8.55736ZM14.2412 9.96402L7.51148 9.25014C6.94624 9.7533 6.88281 9.91928 6.45692 10.538C5.95639 11.2645 5.55537 12.0423 5.25762 12.8079C4.8479 13.8618 5.26633 14.9756 5.68849 16.0992C6.10319 17.2028 6.52163 18.3161 6.26699 19.4954C6.09075 20.3122 5.65117 21.0986 5.07806 21.7966C4.55015 22.4401 3.7021 23.2781 3.04688 23.7308L8.18618 27.2455C9.0587 26.5661 9.82548 25.8693 10.4235 25.1204C11.0526 24.3317 11.4992 23.479 11.6896 22.5186C12.0582 20.6572 11.5598 19.2786 11.1135 18.0436C10.6719 16.822 10.2775 15.7294 10.708 14.4134C11.4167 12.2482 12.5011 11.4028 14.2399 9.96649L14.2412 9.96402Z" fill="#F48C0D"/>
<path fill-rule="evenodd" clip-rule="evenodd" d="M3.57694 11.4101C3.4629 11.3975 3.38078 11.2958 3.39364 11.1839C3.4065 11.0721 3.51017 10.9916 3.62421 11.0042L8.81205 11.5903C8.92608 11.6029 9.00819 11.7046 8.99537 11.8165C8.98249 11.9284 8.87882 12.0089 8.76478 11.9963L3.57694 11.4101ZM2.87651 13.728C2.76247 13.7154 2.68036 13.6137 2.69322 13.5018C2.70607 13.3899 2.80975 13.3094 2.92379 13.322L5.72672 13.6389C5.84076 13.6515 5.92287 13.7532 5.91002 13.865C5.89716 13.9769 5.79349 14.0575 5.67945 14.0449L2.87651 13.728ZM2.96858 12.5438C2.85454 12.5312 2.77243 12.4295 2.78528 12.3176C2.79814 12.2058 2.90181 12.1252 3.01585 12.1378L6.9426 12.5817C7.05664 12.5943 7.13874 12.696 7.12592 12.8078C7.11305 12.9197 7.00938 13.0002 6.89534 12.9876L2.96858 12.5438Z" fill="#F48C0D"/>
<path fill-rule="evenodd" clip-rule="evenodd" d="M4.03201 18.888C3.86987 19.8639 3.01725 20.7983 2.39355 21.3792C2.78876 21.6294 3.0749 21.8104 3.4701 22.061C4.39653 21.3959 5.21431 20.518 5.22592 19.3152L4.03201 18.888ZM5.28232 17.8052L6.56542 18.0452C6.72466 18.6294 6.90464 19.1504 6.93072 19.7459C6.98674 21.0338 6.09845 22.3331 5.12681 23.0303C4.73161 22.7797 4.33599 22.5296 3.94078 22.279C4.59144 21.6729 5.49133 20.6824 5.59666 19.6609C5.66301 19.0129 5.50128 18.4149 5.28232 17.8052ZM6.36385 16.5051C6.53264 17.8865 7.593 18.6724 7.25957 20.4261C7.068 21.4349 6.24566 22.4458 5.59501 23.0519C5.99021 23.3024 6.25893 23.4725 6.65415 23.7227C7.62616 23.0255 8.20678 22.041 8.58162 20.8865C9.16385 19.0935 7.81405 18.0293 7.52583 16.7199C7.08913 16.6393 6.80052 16.5856 6.36385 16.5051Z" fill="#F48C0D"/>
<path d="M10.6782 7.77777C12.7253 7.77777 14.3848 6.03666 14.3848 3.88889C14.3848 1.74111 12.7253 0 10.6782 0C8.63116 0 6.97168 1.74111 6.97168 3.88889C6.97168 6.03666 8.63116 7.77777 10.6782 7.77777Z" fill="#F48C0D"/>
<path d="M13.7718 3.5C13.7718 5.19788 12.39 6.58 10.6784 6.58C8.96675 6.58 7.58496 5.19788 7.58496 3.5C7.58496 1.80211 8.96675 0.419998 10.6784 0.419998C12.39 0.419998 13.7718 1.80211 13.7718 3.5Z" fill="#F48C0D" stroke="#F48C0D" stroke-width="1.5"/>
<path d="M19.0679 25.2V13.1018H22.6975V14.8758C23.1062 14.2188 23.654 13.7178 24.3407 13.3728C25.0273 13.0278 25.7958 12.8554 26.646 12.8554C28.0684 12.8554 29.1311 13.2742 29.8342 14.112C30.5372 14.9334 30.8887 16.2064 30.8887 17.9312V25.2H27.1855V18.1037C27.1855 17.2659 27.0302 16.6663 26.7195 16.305C26.4089 15.9271 25.9511 15.7382 25.3462 15.7382C24.5614 15.7382 23.9319 15.9846 23.4578 16.4774C23 16.9702 22.7711 17.6273 22.7711 18.4486V25.2H19.0679ZM37.0896 25.2L31.8413 13.1018H35.7407L38.7573 20.7894L41.8719 13.1018H45.5261L40.2042 25.2H37.0896ZM50.4656 25.471C49.5664 25.471 48.7734 25.2986 48.0868 24.9536C47.4001 24.6086 46.8524 24.1405 46.4436 23.5491C46.0512 22.9578 45.855 22.2925 45.855 21.5533C45.855 20.6826 46.0839 19.9846 46.5417 19.4589C46.9995 18.9332 47.7434 18.5636 48.7734 18.3501C49.8035 18.1201 51.1687 18.0051 52.869 18.0051H53.7519V17.5862C53.7519 16.8634 53.5885 16.3542 53.2614 16.0586C52.9345 15.7465 52.3786 15.5904 51.5938 15.5904C50.9398 15.5904 50.2449 15.6972 49.5092 15.9107C48.7898 16.1078 48.0704 16.4118 47.351 16.8224L46.3455 14.3338C46.7706 14.0545 47.2856 13.7999 47.8906 13.5699C48.5119 13.3399 49.1577 13.1674 49.828 13.0525C50.4984 12.921 51.136 12.8554 51.7409 12.8554C53.6048 12.8554 54.9946 13.2825 55.9101 14.1366C56.8257 14.9744 57.2833 16.2803 57.2833 18.0544V25.2H53.8255V23.3766C53.5803 24.0173 53.1633 24.5265 52.5748 24.9043C52.0026 25.2822 51.2995 25.471 50.4656 25.471ZM51.2995 22.9824C51.9862 22.9824 52.5666 22.7442 53.0407 22.2678C53.5149 21.7914 53.7519 21.1754 53.7519 20.4198V19.927H52.8936C51.6347 19.927 50.7436 20.042 50.2204 20.272C49.6972 20.4855 49.4356 20.8634 49.4356 21.4054C49.4356 21.8654 49.591 22.2432 49.9016 22.5389C50.2286 22.8346 50.6946 22.9824 51.2995 22.9824ZM60.0462 25.2V13.1018H63.6759V15.1962C64.2477 13.7834 65.474 13.0032 67.3546 12.8554L68.4336 12.7814L68.6544 15.9107L66.5698 16.1325C64.7382 16.3132 63.823 17.2495 63.823 18.9414V25.2H60.0462Z" fill="white"/>
</g>
<defs>
<clipPath id="clip0_101_23">
<rect width="68" height="28" fill="white" transform="translate(0.924316)"/>
</clipPath>
</defs>
</svg>
